<svg xmlns="http://www.w3.org/2000/svg" width="218.422" height="64.203" viewBox="0 0 218.422 64.203">
  <g id="Qalam-logo" transform="translate(-221.398 -157.219)">
    <text id="ALAM" transform="translate(281.821 209)" fill="#222" font-size="52" font-family="Lato-Black, Lato" font-weight="800" letter-spacing="0.035em"><tspan x="0" y="0">ALAM</tspan></text>
    <g id="Group_20" data-name="Group 20" transform="translate(50.912 1.002)">
      <path id="Path_23" data-name="Path 23" d="M20,0A20,20,0,0,1,40,20a20.2,20.2,0,0,1-2.357,9.428A19.882,19.882,0,0,1,20,40,20,20,0,0,1,9.711,2.846" transform="translate(229.909 195.639) rotate(150)" fill="none" stroke="#0d4877" stroke-width="7"/>
      <g id="Group_19" data-name="Group 19" transform="translate(197.32 182.679)">
        <g id="Group_15" data-name="Group 15" transform="translate(0 0)">
          <path id="Path_16" data-name="Path 16" d="M897.6,355.592a49.632,49.632,0,0,0-3.884-4.731,47.128,47.128,0,0,0-9.968-8.484,15.65,15.65,0,0,0-4.972-2.163c-.073-.015-.164-.022-.165-.133h-1.433c-.025.128-.145.1-.223.125a1.825,1.825,0,0,0-1.367,1.8,6.519,6.519,0,0,0,.491,2.721,14.343,14.343,0,0,0,2.124,3.9,15.788,15.788,0,0,0,2.9,2.83,35.98,35.98,0,0,0,7.461,3.848,5.714,5.714,0,0,0,1.031.41.292.292,0,0,0-.146-.337c-.068-.035-.158-.079-.117-.176s.136-.069.21-.06a20.371,20.371,0,0,0,2.722.013c.954-.014,1.91.062,2.863-.021.2-.018.373.1.584.059a1.546,1.546,0,0,1,1.456.252A.53.53,0,0,0,897.6,355.592Z" transform="translate(-875.576 -340.081)" fill="#0d4877"/>
          <path id="Path_17" data-name="Path 17" d="M782.467,529.281a.53.53,0,0,1-.437-.152,1.546,1.546,0,0,0-1.456-.252c-.211.045-.383-.077-.584-.059-.953.083-1.909.007-2.863.021a20.364,20.364,0,0,1-2.722-.013c-.074-.009-.172-.03-.21.06s.05.141.117.176a.292.292,0,0,1,.146.337c1.327.625,2.675,1.206,3.968,1.9a26.222,26.222,0,0,1,9.532,8.545c.571.856,1.054,1.77,1.573,2.66.049.083.136.166.062.3-.194-.024-.222-.208-.3-.326a26.856,26.856,0,0,0-9.423-8.72,10.033,10.033,0,0,0-2.773-1.07,2.836,2.836,0,0,0-1.185-.039.836.836,0,0,0-.735.933,2.019,2.019,0,0,0,.37,1.144c.189.261.29.586.469.855a6.913,6.913,0,0,0,3.811,2.719c1.305.418,2.634.764,3.94,1.179a12.071,12.071,0,0,1,6.263,4.571,1.1,1.1,0,0,0,.139.136l.375.007a50.7,50.7,0,0,0-3.387-7.6A55.987,55.987,0,0,0,782.467,529.281Zm7.258,13.852a.589.589,0,0,1-.058-.122c0-.014.034-.053.045-.05a.48.48,0,0,1,.1.051Zm-.117-.268.028-.028a.255.255,0,0,1,.025.053c0,.007-.016.017-.025.026Z" transform="translate(-760.447 -513.77)" fill="#0d4877"/>
          <path id="Path_18" data-name="Path 18" d="M770.327,721.827l-.375-.007a1.975,1.975,0,0,0,.713.862Z" transform="translate(-740.228 -691.405)" fill="#0d4877"/>
          <path id="Path_19" data-name="Path 19" d="M783.47,706.636l.085-.12a.478.478,0,0,0-.1-.051c-.01,0-.047.036-.045.05A.583.583,0,0,0,783.47,706.636Z" transform="translate(-754.192 -677.272)" fill="#0d4877"/>
          <path id="Path_20" data-name="Path 20" d="M785.281,704.932l.028.051c.009-.009.026-.02.025-.026a.251.251,0,0,0-.025-.053Z" transform="translate(-756.12 -675.837)" fill="#0d4877"/>
        </g>
      </g>
    </g>
  </g>
</svg>
